# File created by Blade
# Date/Time:  Thu Jan 22 16:21:39 2015
# Frame Rate: 120.000 fps
#------------------------------------------------------
:FULLY-SPECIFIED
:DEGREES
1040
root -3.249768 37.306249 3.064924 2.163416 7.734485 2.281701
RightUpLeg -0.108565 -8.921883 3.975510
RightLeg -0.924037 -0.000000 0.000000
RightFoot -12.462117 -10.553249 16.590674
RightToeBase 13.536780 -0.000000 -0.000000
LeftUpLeg 3.963903 4.228530 3.131522
LeftLeg 27.480042 -0.000000 -0.000000
LeftFoot -17.343164 12.881843 -17.284628
LeftToeBase -8.551542 -0.000000 0.000000
Spine 11.483804 -4.438964 4.062644
RightShoulder -6.178343 -16.692370 -25.059760
RightArm 10.956661 27.533312 42.365099
RightForeArm 6.476107 0.000000 20.044781
RightHand 6.381781 -0.000000 -16.465322
RightHandThumb1 -24.326973 -0.000000 -32.862282
LeftShoulder -29.342638 32.489791 12.739555
LeftArm 46.350370 -55.978059 -66.172833
LeftForeArm 32.279621 -0.000000 10.898995
LeftHand -22.119801 -0.000000 2.397421
LeftHandThumb1 -26.253704 0.000000 33.147579
Head -1.023878 -0.748231 5.645377
1041
root -3.352534 37.291311 3.082995 2.223558 8.233504 2.115850
RightUpLeg -0.280213 -9.017406 4.291600
RightLeg -0.648997 -0.000000 0.000000
RightFoot -12.725580 -10.522652 16.832992
RightToeBase 13.804687 -0.000000 -0.000000
LeftUpLeg 4.668546 4.094946 2.566173
LeftLeg 27.738188 -0.000000 -0.000000
LeftFoot -17.374198 12.373075 -17.594382
LeftToeBase -8.517120 -0.000000 0.000000
Spine 11.249420 -4.748357 4.222797
RightShoulder -6.317239 -16.869376 -24.826098
RightArm 10.873967 27.414755 42.489774
RightForeArm 6.427386 -0.000000 19.909349
RightHand 6.390206 -0.000000 -16.455434
RightHandThumb1 -24.326973 -0.000000 -32.862282
LeftShoulder -29.271977 32.542688 12.922609
LeftArm 46.665975 -56.018441 -66.129435
LeftForeArm 32.097637 -0.000000 10.932760
LeftHand -22.066032 -0.000000 2.456754
LeftHandThumb1 -26.253704 0.000000 33.147579
Head -0.906501 -0.988594 5.865244
1042
root -3.451166 37.276166 3.100265 2.290450 8.724679 1.979925
RightUpLeg -0.445422 -9.090567 4.595098
RightLeg -0.414151 -0.000000 0.000000
RightFoot -13.001489 -10.657341 16.956299
RightToeBase 13.984544 -0.000000 -0.000000
LeftUpLeg 5.419071 3.909082 1.941264
LeftLeg 27.838047 -0.000000 -0.000000
LeftFoot -17.363213 11.827688 -18.075899
LeftToeBase -8.136385 -0.000000 0.000000
Spine 10.999649 -5.101577 4.353655
RightShoulder -6.358558 -17.009686 -24.647990
RightArm 10.660506 27.385888 42.654520
RightForeArm 6.357163 -0.000000 19.955626
RightHand 6.254213 -0.000000 -16.314370
RightHandThumb1 -24.326973 -0.000000 -32.862282
LeftShoulder -29.256194 32.591199 13.041235
LeftArm 46.957330 -56.046816 -66.019113
LeftForeArm 31.939215 0.000000 10.980835
LeftHand -22.070403 -0.000000 2.432879
LeftHandThumb1 -26.253704 0.000000 33.147579
Head -0.752438 -1.143217 6.046582
1043
root -3.550841 37.261878 3.117642 2.353010 9.236178 1.827086
RightUpLeg -0.615566 -9.125639 4.916187
RightLeg -0.179379 -0.000000 0.000000
RightFoot -13.265878 -10.839498 17.097090
RightToeBase 14.099641 -0.000000 -0.000000
LeftUpLeg 6.197124 3.633569 1.300991
LeftLeg 27.808332 -0.000000 -0.000000
LeftFoot -17.331825 11.047353 -18.841542
LeftToeBase -8.593176 -0.000000 0.000000
Spine 10.771226 -5.454260 4.497172
RightShoulder -6.467430 -17.182398 -24.405184
RightArm 10.517180 27.287599 42.765484
RightForeArm 6.339453 -0.000000 19.931191
RightHand 6.276109 -0.000000 -16.434192
RightHandThumb1 -24.326973 -0.000000 -32.862282
LeftShoulder -29.206466 32.559585 13.230446
LeftArm 47.212628 -56.049968 -65.927680
LeftForeArm 31.840683 -0.000000 11.040829
LeftHand -21.790651 -0.000000 2.330737
LeftHandThumb1 -26.253704 0.000000 33.147579
Head -0.657995 -1.317595 6.268164
